<svg width="449" height="126" viewBox="0 0 449 126" fill="none" xmlns="http://www.w3.org/2000/svg">
<path d="M192.166 38C192.166 19.2223 207.388 4 226.166 4C244.944 4 260.166 19.2223 260.166 38C260.166 56.7777 244.944 72 226.166 72C207.388 72 192.166 56.7777 192.166 38Z" fill="white"/>
<path d="M224.166 0C213.557 0 203.383 4.2142 195.882 11.716C188.38 19.218 184.166 29.392 184.166 40C184.166 50.608 188.38 60.784 195.882 68.284C203.383 75.786 213.557 80 224.166 80C234.774 80 244.949 75.786 252.45 68.284C259.953 60.782 264.166 50.608 264.166 40C264.153 29.394 259.937 19.228 252.438 11.7288C244.939 4.23021 234.772 0.0122 224.166 0ZM243.553 22.218L232.126 47.358C232.003 47.626 231.791 47.84 231.524 47.96L206.381 59.388C205.922 59.598 205.38 59.5 205.023 59.142C204.665 58.786 204.567 58.244 204.777 57.784L216.205 32.644C216.326 32.376 216.539 32.162 216.806 32.042L241.948 20.612C242.407 20.404 242.951 20.502 243.308 20.86C243.665 21.216 243.761 21.758 243.553 22.218Z" fill="#1DD7C0"/>
<path d="M431.109 125.425C430.14 125.425 429.197 125.28 428.279 124.991C427.361 124.723 426.571 124.322 425.908 123.787L427.476 121.379C427.986 121.803 428.547 122.126 429.159 122.349C429.771 122.572 430.421 122.683 431.109 122.683C432.001 122.683 432.741 122.483 433.327 122.081C433.914 121.68 434.462 120.967 434.972 119.941L436.234 117.5L436.616 117.099L444.571 101.016H448.166L438.337 120.51C437.751 121.758 437.088 122.739 436.348 123.452C435.635 124.166 434.844 124.667 433.977 124.957C433.11 125.269 432.154 125.425 431.109 125.425ZM435.928 119.306L426.673 101.016H430.497L438.375 116.798L435.928 119.306Z" fill="white"/>
<path d="M412.536 118.938C410.573 118.938 408.814 118.559 407.259 117.801C405.729 117.043 404.518 115.985 403.625 114.625C402.733 113.265 402.287 111.682 402.287 109.877C402.287 108.071 402.733 106.499 403.625 105.162C404.518 103.802 405.729 102.743 407.259 101.985C408.814 101.227 410.573 100.848 412.536 100.848C414.244 100.848 415.787 101.183 417.163 101.852C418.54 102.52 419.637 103.523 420.452 104.861C421.294 106.198 421.714 107.87 421.714 109.877C421.714 111.883 421.307 113.555 420.491 114.892C419.7 116.23 418.617 117.244 417.24 117.935C415.863 118.604 414.295 118.938 412.536 118.938ZM412.842 116.129C414.117 116.129 415.264 115.873 416.284 115.36C417.329 114.848 418.145 114.123 418.731 113.187C419.343 112.228 419.649 111.125 419.649 109.877C419.649 108.606 419.343 107.514 418.731 106.6C418.145 105.663 417.329 104.939 416.284 104.426C415.264 103.914 414.117 103.657 412.842 103.657C411.542 103.657 410.382 103.914 409.362 104.426C408.342 104.939 407.526 105.663 406.914 106.6C406.302 107.514 405.996 108.606 405.996 109.877C405.996 111.125 406.302 112.228 406.914 113.187C407.526 114.123 408.342 114.848 409.362 115.36C410.382 115.873 411.542 116.129 412.842 116.129ZM419.764 118.738V113.956L419.994 109.843L419.611 105.73V93.9268H423.282V118.738H419.764Z" fill="white"/>
<path d="M386.468 118.938C384.505 118.938 382.745 118.559 381.19 117.801C379.66 117.043 378.449 115.985 377.557 114.625C376.665 113.265 376.219 111.682 376.219 109.877C376.219 108.071 376.665 106.499 377.557 105.162C378.449 103.802 379.66 102.743 381.19 101.985C382.745 101.227 384.505 100.848 386.468 100.848C388.176 100.848 389.718 101.183 391.095 101.852C392.472 102.52 393.568 103.523 394.384 104.861C395.225 106.198 395.646 107.87 395.646 109.877C395.646 111.883 395.238 113.555 394.422 114.892C393.632 116.23 392.548 117.244 391.172 117.935C389.795 118.604 388.227 118.938 386.468 118.938ZM386.774 116.129C388.048 116.129 389.196 115.873 390.216 115.36C391.261 114.848 392.077 114.123 392.663 113.187C393.275 112.228 393.581 111.125 393.581 109.877C393.581 108.606 393.275 107.514 392.663 106.6C392.077 105.663 391.261 104.939 390.216 104.426C389.196 103.914 388.048 103.657 386.774 103.657C385.473 103.657 384.313 103.914 383.293 104.426C382.274 104.939 381.458 105.663 380.846 106.6C380.234 107.514 379.928 108.606 379.928 109.877C379.928 111.125 380.234 112.228 380.846 113.187C381.458 114.123 382.274 114.848 383.293 115.36C384.313 115.873 385.473 116.129 386.774 116.129ZM393.696 118.738V113.956L393.925 109.843L393.543 105.73V93.9268H397.214V118.738H393.696Z" fill="white"/>
<path d="M360.741 118.938C359.007 118.938 357.477 118.66 356.152 118.102C354.851 117.545 353.831 116.698 353.092 115.561C352.378 114.402 352.021 112.953 352.021 111.214V101.016H355.693V110.846C355.693 112.585 356.164 113.889 357.108 114.759C358.076 115.628 359.428 116.063 361.161 116.063C362.436 116.063 363.545 115.84 364.489 115.394C365.432 114.926 366.159 114.257 366.668 113.388C367.178 112.496 367.433 111.426 367.433 110.178V101.016H371.105V118.738H367.625V113.956L368.198 115.227C367.535 116.408 366.541 117.322 365.215 117.969C363.889 118.615 362.398 118.938 360.741 118.938Z" fill="white"/>
<path d="M323.803 118.738V95.3311H335.811C338.896 95.3311 341.267 95.8772 342.925 96.9695C344.582 98.0395 345.41 99.5108 345.41 101.383C345.41 102.654 345.079 103.724 344.416 104.593C343.779 105.463 342.912 106.131 341.816 106.6C340.719 107.068 339.534 107.302 338.259 107.302L338.947 106.299C340.477 106.299 341.828 106.533 343.001 107.001C344.174 107.469 345.104 108.16 345.793 109.074C346.481 109.966 346.825 111.08 346.825 112.418C346.825 114.424 345.959 115.984 344.225 117.099C342.517 118.191 339.967 118.738 336.576 118.738H323.803ZM327.627 116.029H336.423C338.539 116.029 340.158 115.717 341.28 115.093C342.402 114.469 342.963 113.488 342.963 112.15C342.963 110.79 342.402 109.798 341.28 109.174C340.158 108.55 338.539 108.238 336.423 108.238H327.283V105.53H335.467C337.405 105.53 338.909 105.218 339.98 104.593C341.051 103.969 341.586 103.033 341.586 101.785C341.586 100.536 341.051 99.6 339.98 98.9758C338.909 98.3516 337.405 98.0395 335.467 98.0395H327.627V116.029Z" fill="white"/>
<path d="M308.876 118.938C306.709 118.938 304.797 118.547 303.14 117.767C301.508 116.987 300.233 115.917 299.316 114.557C298.423 113.197 297.977 111.637 297.977 109.876C297.977 108.115 298.41 106.554 299.277 105.195C300.17 103.835 301.381 102.776 302.91 102.018C304.466 101.238 306.212 100.848 308.15 100.848C310.113 100.848 311.847 101.227 313.351 101.985C314.855 102.742 316.028 103.812 316.869 105.195C317.736 106.554 318.17 108.148 318.17 109.976C318.17 110.11 318.157 110.266 318.131 110.444C318.131 110.623 318.119 110.79 318.093 110.946H300.845V108.639H316.181L314.689 109.441C314.715 108.304 314.447 107.29 313.886 106.398C313.325 105.507 312.548 104.816 311.553 104.325C310.585 103.812 309.45 103.556 308.15 103.556C306.875 103.556 305.74 103.812 304.746 104.325C303.752 104.816 302.974 105.518 302.413 106.432C301.852 107.323 301.572 108.349 301.572 109.508V110.043C301.572 111.225 301.878 112.283 302.49 113.22C303.127 114.134 304.007 114.847 305.129 115.36C306.25 115.872 307.538 116.129 308.991 116.129C310.189 116.129 311.273 115.95 312.242 115.594C313.236 115.237 314.103 114.702 314.842 113.989L316.869 116.062C315.951 116.998 314.804 117.711 313.427 118.202C312.076 118.692 310.559 118.938 308.876 118.938Z" fill="white"/>
<path d="M287.136 118.938C285.071 118.938 283.222 118.547 281.591 117.767C279.984 116.987 278.722 115.917 277.805 114.557C276.887 113.197 276.428 111.637 276.428 109.876C276.428 108.115 276.887 106.554 277.805 105.195C278.722 103.835 279.984 102.776 281.591 102.018C283.222 101.238 285.071 100.848 287.136 100.848C288.972 100.848 290.603 101.171 292.031 101.817C293.484 102.442 294.606 103.378 295.396 104.626L292.605 106.198C291.942 105.328 291.126 104.693 290.157 104.292C289.214 103.868 288.194 103.656 287.098 103.656C285.772 103.656 284.586 103.913 283.541 104.426C282.496 104.938 281.667 105.663 281.055 106.599C280.443 107.513 280.137 108.605 280.137 109.876C280.137 111.147 280.443 112.25 281.055 113.186C281.667 114.122 282.496 114.847 283.541 115.36C284.586 115.872 285.772 116.129 287.098 116.129C288.194 116.129 289.214 115.928 290.157 115.527C291.126 115.103 291.942 114.457 292.605 113.587L295.396 115.126C294.606 116.352 293.484 117.299 292.031 117.968C290.603 118.614 288.972 118.938 287.136 118.938Z" fill="white"/>
<path d="M263.094 100.848C264.751 100.848 266.205 101.126 267.454 101.684C268.729 102.241 269.723 103.088 270.437 104.225C271.151 105.362 271.508 106.8 271.508 108.538V118.737H267.836V108.906C267.836 107.19 267.352 105.897 266.383 105.027C265.44 104.158 264.101 103.723 262.367 103.723C261.067 103.723 259.933 103.946 258.964 104.392C257.995 104.838 257.243 105.496 256.707 106.365C256.198 107.234 255.943 108.315 255.943 109.608V118.737H252.271V101.015H255.79V105.796L255.216 104.526C255.879 103.367 256.899 102.464 258.275 101.817C259.652 101.171 261.258 100.848 263.094 100.848Z" fill="white"/>
<path d="M241.998 118.737V114.992L241.807 114.29V107.903C241.807 106.543 241.348 105.496 240.43 104.76C239.538 104.002 238.186 103.623 236.376 103.623C235.178 103.623 234.005 103.801 232.858 104.158C231.71 104.492 230.742 104.949 229.951 105.529L228.422 103.121C229.467 102.386 230.716 101.828 232.169 101.45C233.648 101.048 235.191 100.848 236.797 100.848C239.576 100.848 241.717 101.438 243.222 102.62C244.726 103.801 245.478 105.607 245.478 108.037V118.737H241.998ZM235.344 118.938C233.839 118.938 232.514 118.715 231.366 118.269C230.244 117.823 229.378 117.21 228.766 116.43C228.154 115.627 227.848 114.724 227.848 113.721C227.848 112.763 228.103 111.893 228.613 111.113C229.148 110.333 230.002 109.709 231.175 109.241C232.373 108.772 233.98 108.538 235.994 108.538H242.419V110.846H236.147C234.311 110.846 233.074 111.113 232.437 111.648C231.8 112.183 231.481 112.83 231.481 113.587C231.481 114.457 231.876 115.159 232.667 115.694C233.457 116.207 234.553 116.463 235.955 116.463C237.332 116.463 238.531 116.196 239.55 115.661C240.596 115.126 241.348 114.345 241.807 113.32L242.533 115.527C242.049 116.575 241.195 117.411 239.971 118.035C238.747 118.637 237.205 118.938 235.344 118.938Z" fill="white"/>
<path d="M211.722 118.938C209.759 118.938 208 118.559 206.444 117.801C204.915 117.043 203.704 115.985 202.811 114.625C201.919 113.265 201.473 111.682 201.473 109.877C201.473 108.071 201.919 106.499 202.811 105.162C203.704 103.802 204.915 102.743 206.444 101.985C208 101.227 209.759 100.848 211.722 100.848C213.43 100.848 214.973 101.183 216.349 101.852C217.726 102.52 218.822 103.523 219.638 104.861C220.48 106.198 220.9 107.87 220.9 109.877C220.9 111.883 220.492 113.555 219.676 114.892C218.886 116.23 217.803 117.244 216.426 117.935C215.049 118.604 213.481 118.938 211.722 118.938ZM212.028 116.129C213.303 116.129 214.45 115.873 215.47 115.36C216.515 114.848 217.331 114.123 217.917 113.187C218.529 112.228 218.835 111.125 218.835 109.877C218.835 108.606 218.529 107.514 217.917 106.6C217.331 105.663 216.515 104.939 215.47 104.426C214.45 103.914 213.303 103.657 212.028 103.657C210.728 103.657 209.567 103.914 208.548 104.426C207.528 104.939 206.712 105.663 206.1 106.6C205.488 107.514 205.182 108.606 205.182 109.877C205.182 111.125 205.488 112.228 206.1 113.187C206.712 114.123 207.528 114.848 208.548 115.36C209.567 115.873 210.728 116.129 212.028 116.129ZM218.95 118.738V113.956L219.179 109.843L218.797 105.73V93.9268H222.468V118.738H218.95Z" fill="white"/>
<path d="M192.665 118.737V101.015H196.337V118.737H192.665ZM194.501 97.6045C193.787 97.6045 193.188 97.4039 192.704 97.0027C192.245 96.6014 192.015 96.111 192.015 95.5314C192.015 94.9295 192.245 94.4279 192.704 94.0267C193.188 93.6254 193.787 93.4248 194.501 93.4248C195.215 93.4248 195.801 93.6254 196.26 94.0267C196.745 94.4056 196.987 94.8849 196.987 95.4645C196.987 96.0664 196.757 96.5791 196.298 97.0027C195.839 97.4039 195.24 97.6045 194.501 97.6045Z" fill="white"/>
<path d="M175.312 118.938C173.579 118.938 172.049 118.66 170.723 118.102C169.423 117.545 168.403 116.698 167.664 115.561C166.95 114.402 166.593 112.953 166.593 111.214V101.016H170.264V110.846C170.264 112.585 170.736 113.889 171.679 114.759C172.648 115.628 173.999 116.063 175.733 116.063C177.008 116.063 178.117 115.84 179.06 115.394C180.004 114.926 180.73 114.257 181.24 113.388C181.75 112.496 182.005 111.426 182.005 110.178V101.016H185.676V118.738H182.196V113.956L182.77 115.227C182.107 116.408 181.113 117.322 179.787 117.969C178.461 118.615 176.97 118.938 175.312 118.938Z" fill="white"/>
<path d="M149.862 119.005C147.797 119.005 145.898 118.715 144.164 118.136C142.43 117.534 140.926 116.698 139.651 115.628C138.377 114.535 137.382 113.265 136.668 111.816C135.955 110.367 135.598 108.773 135.598 107.034C135.598 105.295 135.955 103.702 136.668 102.253C137.382 100.804 138.377 99.5441 139.651 98.4741C140.952 97.3818 142.469 96.5459 144.202 95.9663C145.936 95.3644 147.848 95.0635 149.939 95.0635C152.055 95.0635 153.993 95.3644 155.752 95.9663C157.511 96.5682 159.003 97.471 160.226 98.6748L157.855 100.748C156.759 99.8116 155.561 99.1317 154.26 98.7082C152.986 98.2624 151.596 98.0394 150.092 98.0394C148.562 98.0394 147.134 98.2624 145.809 98.7082C144.508 99.154 143.374 99.7782 142.405 100.581C141.462 101.383 140.722 102.342 140.187 103.456C139.677 104.549 139.422 105.741 139.422 107.034C139.422 108.305 139.677 109.497 140.187 110.612C140.722 111.704 141.462 112.663 142.405 113.488C143.374 114.29 144.508 114.914 145.809 115.36C147.109 115.806 148.524 116.029 150.054 116.029C151.481 116.029 152.845 115.84 154.146 115.461C155.471 115.059 156.695 114.402 157.817 113.488L159.997 116.029C158.671 117.01 157.116 117.757 155.331 118.269C153.572 118.76 151.749 119.005 149.862 119.005ZM156.326 115.594V106.9H159.997V116.029L156.326 115.594Z" fill="white"/>
<path d="M119.14 118.737V100.613H126.062V105.897L125.03 104.392C125.641 103.032 126.636 102.018 128.013 101.349C129.389 100.658 131.059 100.312 133.022 100.312V106.03C132.691 105.986 132.398 105.963 132.143 105.963C131.913 105.941 131.658 105.93 131.378 105.93C129.899 105.93 128.701 106.287 127.783 107C126.865 107.691 126.406 108.828 126.406 110.411V118.737H119.14Z" fill="white"/>
<path d="M105.463 119.038C103.016 119.038 100.874 118.636 99.0383 117.834C97.2281 117.009 95.8131 115.895 94.7932 114.49C93.7989 113.063 93.3018 111.447 93.3018 109.642C93.3018 107.836 93.7862 106.231 94.755 104.827C95.7493 103.4 97.1133 102.296 98.847 101.516C100.581 100.714 102.531 100.312 104.698 100.312C106.738 100.312 108.599 100.68 110.282 101.416C111.964 102.129 113.303 103.188 114.297 104.593C115.292 105.997 115.789 107.702 115.789 109.709C115.789 109.931 115.776 110.188 115.751 110.478C115.725 110.767 115.7 111.035 115.674 111.28H99.2677V107.936H111.812L109.058 108.873C109.083 108.048 108.905 107.334 108.523 106.733C108.166 106.131 107.656 105.663 106.993 105.328C106.355 104.994 105.603 104.827 104.736 104.827C103.87 104.827 103.105 104.994 102.442 105.328C101.805 105.663 101.307 106.142 100.95 106.766C100.593 107.368 100.415 108.081 100.415 108.906V109.876C100.415 110.767 100.619 111.536 101.027 112.183C101.46 112.829 102.072 113.331 102.863 113.688C103.653 114.022 104.596 114.189 105.693 114.189C106.712 114.189 107.579 114.067 108.293 113.821C109.032 113.554 109.759 113.153 110.473 112.618L114.297 116.095C113.303 117.054 112.079 117.789 110.626 118.302C109.173 118.792 107.452 119.038 105.463 119.038Z" fill="white"/>
<path d="M80.9267 119.038C78.4792 119.038 76.3375 118.636 74.5019 117.834C72.6917 117.009 71.2767 115.895 70.2569 114.49C69.2625 113.063 68.7654 111.447 68.7654 109.642C68.7654 107.836 69.2498 106.231 70.2186 104.827C71.2129 103.4 72.577 102.296 74.3107 101.516C76.0444 100.714 77.9948 100.312 80.1619 100.312C82.2015 100.312 84.0627 100.68 85.7454 101.416C87.4281 102.129 88.7666 103.188 89.7609 104.593C90.7553 105.997 91.2524 107.702 91.2524 109.709C91.2524 109.931 91.2397 110.188 91.2142 110.478C91.1887 110.767 91.1632 111.035 91.1377 111.28H74.7313V107.936H87.2751L84.5216 108.873C84.5471 108.048 84.3686 107.334 83.9862 106.733C83.6293 106.131 83.1194 105.663 82.4565 105.328C81.8191 104.994 81.067 104.827 80.2001 104.827C79.3333 104.827 78.5684 104.994 77.9055 105.328C77.2681 105.663 76.771 106.142 76.414 106.766C76.0571 107.368 75.8786 108.081 75.8786 108.906V109.876C75.8786 110.767 76.0826 111.536 76.4905 112.183C76.9239 112.829 77.5358 113.331 78.3262 113.688C79.1166 114.022 80.0599 114.189 81.1562 114.189C82.176 114.189 83.0429 114.067 83.7567 113.821C84.4961 113.554 85.2227 113.153 85.9366 112.618L89.7609 116.095C88.7666 117.054 87.5428 117.789 86.0896 118.302C84.6363 118.792 82.9154 119.038 80.9267 119.038Z" fill="white"/>
<path d="M53.3721 118.737V100.613H60.2941V105.897L59.2615 104.392C59.8734 103.032 60.8677 102.018 62.2445 101.349C63.6213 100.658 65.2912 100.312 67.2544 100.312V106.03C66.9229 105.986 66.6297 105.963 66.3748 105.963C66.1453 105.941 65.8904 105.93 65.6099 105.93C64.1312 105.93 62.9329 106.287 62.015 107C61.0972 107.691 60.6383 108.828 60.6383 110.411V118.737H53.3721Z" fill="white"/>
<path d="M42.0159 118.737V115.36L41.5188 114.524V108.304C41.5188 107.301 41.1618 106.532 40.448 105.997C39.7596 105.44 38.6505 105.161 37.1208 105.161C36.1265 105.161 35.1194 105.306 34.0996 105.596C33.0798 105.863 32.2129 106.242 31.499 106.733L29.0515 102.419C30.2243 101.75 31.6265 101.238 33.2582 100.881C34.9154 100.502 36.5599 100.312 38.1916 100.312C41.557 100.312 44.1576 100.992 45.9932 102.352C47.8544 103.69 48.785 105.796 48.785 108.672V118.737H42.0159ZM35.897 119.038C34.2398 119.038 32.8376 118.792 31.6903 118.302C30.543 117.812 29.6634 117.143 29.0515 116.296C28.4651 115.449 28.1719 114.501 28.1719 113.454C28.1719 112.339 28.4906 111.38 29.128 110.578C29.7908 109.753 30.7979 109.129 32.1492 108.705C33.5004 108.26 35.2469 108.037 37.3885 108.037H42.2836V111.347H38.3828C37.21 111.347 36.3814 111.514 35.897 111.849C35.4381 112.183 35.2086 112.629 35.2086 113.186C35.2086 113.743 35.4508 114.189 35.9353 114.524C36.4197 114.858 37.0826 115.025 37.9239 115.025C38.7143 115.025 39.4281 114.858 40.0655 114.524C40.7284 114.167 41.2128 113.632 41.5188 112.919L42.5131 115.259C42.1307 116.508 41.3785 117.455 40.2567 118.101C39.1604 118.726 37.7072 119.038 35.897 119.038Z" fill="white"/>
<path d="M14.8892 119.205C12.7731 119.205 10.8099 118.915 8.99972 118.336C7.21504 117.734 5.65981 116.887 4.33404 115.794C3.03377 114.702 2.01395 113.42 1.27458 111.949C0.535212 110.455 0.165527 108.817 0.165527 107.034C0.165527 105.25 0.535212 103.623 1.27458 102.152C2.01395 100.658 3.03377 99.3653 4.33404 98.273C5.65981 97.1807 7.21504 96.3447 8.99972 95.7651C10.8099 95.1632 12.7731 94.8623 14.8892 94.8623C17.3623 94.8623 19.5676 95.2413 21.5053 95.9992C23.4684 96.7571 25.1001 97.8494 26.4004 99.2761L21.5818 103.088C20.7149 102.196 19.7588 101.516 18.7135 101.048C17.6937 100.58 16.5464 100.346 15.2716 100.346C14.1753 100.346 13.1682 100.502 12.2504 100.814C11.3326 101.126 10.5422 101.583 9.87932 102.185C9.24193 102.765 8.73202 103.467 8.34959 104.292C7.99265 105.117 7.81418 106.031 7.81418 107.034C7.81418 108.037 7.99265 108.951 8.34959 109.776C8.73202 110.6 9.24193 111.314 9.87932 111.916C10.5422 112.495 11.3326 112.941 12.2504 113.253C13.1682 113.565 14.1753 113.721 15.2716 113.721C16.5464 113.721 17.6937 113.487 18.7135 113.019C19.7588 112.551 20.7149 111.871 21.5818 110.979L26.4004 114.791C25.1001 116.196 23.4684 117.288 21.5053 118.068C19.5676 118.826 17.3623 119.205 14.8892 119.205Z" fill="white"/>
</svg>
